<svg width="18" height="18" viewBox="0 0 18 18" fill="none" xmlns="http://www.w3.org/2000/svg">
<path fill-rule="evenodd" clip-rule="evenodd" d="M17.25 9.75H9.75C9.33579 9.75 9 10.0858 9 10.5V15.8859C8.9996 16.2488 9.25896 16.5598 9.61594 16.6247L17.1159 17.9878C17.1601 17.9961 17.205 18.0002 17.25 18C17.6642 18 18 17.6642 18 17.25V10.5C18 10.0858 17.6642 9.75 17.25 9.75V9.75ZM16.5 16.3509L10.5 15.2606V11.25H16.5V16.3509ZM6.75 9.75H0.75C0.335786 9.75 0 10.0858 0 10.5V14.25C5.23858e-05 14.6125 0.259312 14.923 0.615937 14.9878L6.61594 16.0791C6.6602 16.0869 6.70505 16.091 6.75 16.0912C7.16421 16.0912 7.5 15.7555 7.5 15.3412V10.5C7.5 10.0858 7.16421 9.75 6.75 9.75V9.75ZM6 14.4422L1.5 13.6238V11.25H6V14.4422ZM17.7309 0.174375C17.5601 0.031762 17.3348 -0.0276537 17.1159 0.0121875L9.61594 1.37625C9.25931 1.44104 9.00005 1.7516 9 2.11406V7.5C9 7.91421 9.33579 8.25 9.75 8.25H17.25C17.6642 8.25 18 7.91421 18 7.5V0.75C18 0.527735 17.9015 0.316902 17.7309 0.174375V0.174375ZM16.5 6.75H10.5V2.73938L16.5 1.64906V6.75ZM7.23094 2.08313C7.06015 1.94051 6.83485 1.8811 6.61594 1.92094L0.615937 3.01219C0.259312 3.07698 5.23858e-05 3.38754 0 3.75V7.5C0 7.91421 0.335786 8.25 0.75 8.25H6.75C7.16421 8.25 7.5 7.91421 7.5 7.5V2.65875C7.50004 2.43649 7.40149 2.22565 7.23094 2.08313V2.08313ZM6 6.75H1.5V4.37625L6 3.5625V6.75Z" fill="#0D0F1C"/>
</svg>
