<?xml version="1.0" encoding="UTF-8"?>
<svg width="24" height="24" viewBox="0 0 24 24" fill="none" xmlns="http://www.w3.org/2000/svg">
  <path d="M18 10H16.74C16.3659 7.54425 14.3377 5.60702 11.9 5.15C8.01956 4.42857 4.42857 8.01956 5.15 11.9C5.60702 14.3377 7.54425 16.3659 10 16.74V18C10 19.1046 9.10457 20 8 20H6C4.89543 20 4 19.1046 4 18V17C4 15.8954 3.10457 15 2 15H2C0.895431 15 0 14.1046 0 13V11C0 9.89543 0.895431 9 2 9H3C3 6.23858 5.23858 4 8 4C10.7614 4 13 6.23858 13 9V10H18C19.1046 10 20 10.8954 20 12V14C20 15.1046 19.1046 16 18 16H16C14.8954 16 14 15.1046 14 14V13C14 11.8954 13.1046 11 12 11H11C10.4477 11 10 11.4477 10 12V14C10 15.1046 10.8954 16 12 16H14C15.1046 16 16 15.1046 16 14V12C16 10.8954 16.8954 10 18 10Z" stroke="#617AFA" stroke-width="2" stroke-linecap="round" stroke-linejoin="round"/>
</svg> 